<?xml version="1.0" encoding="UTF-8"?><svg id="a" xmlns="http://www.w3.org/2000/svg" viewBox="0 0 32 32"><defs><style>.e{fill:#bdbdbd;}.f{fill:#3a3a3a;}</style></defs><g id="b"><g id="c"><g><polygon class="e" points="13.676 2.952 5.002 2.952 5.002 23.859 20.986 23.859 20.986 10.262 13.676 2.952"/><path class="f" d="M21.989,24.86H4V1.951H14.091l7.898,7.896v15.013Zm-15.985-2.004h13.982V10.677L13.261,3.955H6.004V22.856Z"/></g><polygon class="f" points="20.987 11.264 12.674 11.264 12.674 2.953 14.678 2.953 14.678 9.26 20.987 9.26 20.987 11.264"/></g><g id="d"><g><polygon class="e" points="19.687 8.14 11.013 8.14 11.013 29.047 26.997 29.047 26.997 15.45 19.687 8.14"/><path class="f" d="M28,30.049H10.011V7.138h10.092l7.897,7.897v15.014Zm-15.985-2.004h13.982V15.865l-6.723-6.723h-7.258V28.045Z"/></g><polygon class="f" points="26.998 16.452 18.686 16.452 18.686 8.14 20.69 8.14 20.69 14.448 26.998 14.448 26.998 16.452"/></g></g></svg>