<?xml version="1.0" encoding="UTF-8"?><svg id="a" xmlns="http://www.w3.org/2000/svg" viewBox="0 0 32 32"><defs><style>.c{fill:#bdbdbd;}.d{fill:#3a3a3a;}.e{fill:none;}</style></defs><g id="b"><g><g><rect class="c" x="8.364" y="10.545" width="15.273" height="17.455"/><path class="d" d="M23.636,10.545V28H8.364V10.545h15.273m0-2H8.364l-2,2V28l2,2h15.273l2-2V10.545l-2-2h0Z"/></g><g><polygon class="c" points="10.545 4 10.545 8.364 5.091 8.364 5.091 10.545 26.909 10.545 26.909 8.364 21.455 8.364 21.455 4 10.545 4"/><path class="d" d="M21.455,4v4.364h5.455v2.182H5.091v-2.182h5.455V4h10.909m0-2H10.545l-2,2v2.364h-3.455l-2,2v2.182l2,2H26.909l2-2v-2.182l-2-2h-3.455v-2.364l-2-2h0Z"/></g><rect class="d" x="12.727" y="6.182" width="6.545" height="2.182"/><rect class="d" x="12.727" y="14.909" width="2.182" height="10.909"/><rect class="d" x="17.091" y="14.909" width="2.182" height="10.909"/></g><rect class="e" width="32" height="32"/></g></svg>