<?xml version="1.0" encoding="UTF-8"?><svg id="dict" xmlns="http://www.w3.org/2000/svg" viewBox="0 0 32 32"><defs><style>.cls-1{fill:none;}.cls-2{fill:#91c3e7;}.cls-3{fill:#231f20;}</style></defs><rect class="cls-2" x="4" y="4.008" width="24" height="24" rx="2" ry="2"/><rect class="cls-1" width="32" height="32"/><path class="cls-3" d="M8.003,17.004v-1.999c.544-.029,.949-.145,1.219-.346s.453-.497,.552-.885,.149-1.042,.149-1.959c0-1.251,.101-2.072,.302-2.464s.53-.715,.986-.969,1.23-.381,2.323-.381h.465v1.999c-.772,0-1.262,.073-1.473,.219s-.316,.473-.316,.982c0,1.625-.108,2.731-.324,3.318s-.658,1.083-1.324,1.486c.564,.292,.98,.719,1.247,1.28,.268,.561,.402,1.733,.402,3.516,0,.491,.116,.815,.346,.973s.712,.237,1.442,.237v1.99h-.457c-1.02,0-1.788-.123-2.307-.368s-.867-.607-1.045-1.083c-.179-.476-.268-1.287-.268-2.433,0-.883-.051-1.515-.153-1.898s-.287-.673-.552-.872-.671-.313-1.214-.342Z"/><path class="cls-3" d="M23.988,15.005v1.999c-.544,.024-.95,.136-1.219,.338s-.452,.497-.552,.885-.149,1.042-.149,1.959c0,1.157-.1,1.966-.298,2.428s-.563,.808-1.094,1.039c-.53,.231-1.268,.346-2.212,.346h-.464v-1.99c.772,0,1.262-.075,1.473-.224s.316-.478,.316-.986c0-1.525,.098-2.606,.291-3.239,.196-.634,.645-1.156,1.348-1.565-.556-.287-.966-.712-1.236-1.276s-.403-1.738-.403-3.52c0-.491-.116-.814-.346-.969s-.712-.232-1.442-.232v-1.999h.465c1.011,0,1.776,.124,2.297,.373s.868,.609,1.043,1.083,.263,1.286,.263,2.437c0,.877,.051,1.506,.154,1.889,.102,.383,.286,.675,.551,.877,.267,.202,.672,.317,1.215,.346Z"/></svg>