<?xml version="1.0" encoding="UTF-8"?><svg id="a" xmlns="http://www.w3.org/2000/svg" viewBox="0 0 32 32"><defs><style>.b{fill:#bdbdbd;}.c{fill:#3a3a3a;}.d{fill:none;}</style></defs><g><polygon class="b" points="26 20 26 26 6 26 6 20 8 20 8 24 24 24 24 20 26 20"/><path class="c" d="M26,20v6H6v-6h2v4H24v-4h2m2-2h-6v4H10v-4H4v10H28v-10h0Z"/></g><g><polygon class="b" points="12 14 16 8 20 14 12 14"/><path class="c" d="M16,8l4,6H12l4-6m0-3.606l-1.664,2.496-4,6-2.073,3.109h15.474l-2.073-3.109-4-6-1.664-2.496h0Z"/></g><rect class="d" width="32" height="32"/></svg>