<?xml version="1.0" encoding="UTF-8"?><svg id="float" xmlns="http://www.w3.org/2000/svg" viewBox="0 0 32 32"><defs><style>.cls-1{fill:none;}.cls-2{fill:#91c3e7;}.cls-3{fill:#231f20;}</style></defs><rect class="cls-2" x="4" y="4.008" width="24" height="24" rx="2" ry="2"/><rect class="cls-1" y="0" width="32" height="32"/><g><path class="cls-3" d="M6.099,21.831v-1.835h1.58v-7.777h-1.679v-1.835h4.197v9.612h1.498v1.835H6.099Z"/><path class="cls-3" d="M14.251,21.831v-2.757h2.749v2.757h-2.749Z"/><path class="cls-3" d="M26,18.506l-.099,3.325h-7.333c0-.997,.081-1.771,.242-2.321,.163-.55,.428-1.08,.8-1.597,.369-.517,.886-1.08,1.55-1.695,.872-.801,1.447-1.389,1.725-1.765,.277-.376,.415-.8,.415-1.272,0-.351-.105-.64-.313-.868s-.469-.342-.782-.342c-.456,0-.792,.188-1.009,.564-.216,.376-.341,.989-.374,1.839l-2.099-.099c0-1.103,.165-1.934,.494-2.494s.777-.965,1.341-1.218,1.18-.379,1.843-.379c1.091,0,1.949,.302,2.571,.905,.624,.603,.935,1.355,.935,2.255,0,.483-.095,.928-.283,1.337-.191,.409-.428,.751-.718,1.029-.286,.277-.795,.676-1.526,1.197-1.096,.783-1.786,1.407-2.066,1.868s-.444,.867-.494,1.218h3.341v-1.49h1.835Z"/></g></svg>