<?xml version="1.0" encoding="UTF-8"?><svg id="float" xmlns="http://www.w3.org/2000/svg" viewBox="0 0 32 32"><defs><style>.cls-1{fill:none;}.cls-2{fill:#91c3e7;}.cls-3{fill:#231f20;}</style></defs><rect class="cls-2" x="4" y="4.008" width="24" height="24" rx="2" ry="2"/><rect class="cls-1" width="32" height="32"/><g><path class="cls-3" d="M6.607,21.849v-1.867h1.608v-7.913h-1.708v-1.867h4.271v9.781h1.524v1.867H6.607Z"/><path class="cls-3" d="M14.045,21.849v-2.805h2.798v2.805h-2.798Z"/><path class="cls-3" d="M21.49,22c-1.301,0-2.292-.515-2.976-1.545s-1.027-2.516-1.027-4.459c0-1.904,.335-3.379,1.002-4.426s1.666-1.57,3.001-1.57,2.328,.521,2.998,1.562,1.005,2.519,1.005,4.434c0,1.948-.343,3.436-1.03,4.463s-1.678,1.541-2.973,1.541Zm-.017-1.893c.597,0,.974-.475,1.13-1.424s.234-1.845,.234-2.688c0-1.351-.103-2.374-.313-3.069s-.555-1.043-1.036-1.043c-.486,0-.832,.356-1.038,1.068s-.31,1.729-.31,3.052c0,1.351,.106,2.373,.315,3.065s.547,1.038,1.016,1.038Z"/></g></svg>