<?xml version="1.0" encoding="UTF-8"?><svg id="a" xmlns="http://www.w3.org/2000/svg" viewBox="0 0 24 24"><defs><style>.b{fill:#bdbdbd;}.c{fill:#3a3a3a;}.d{fill:none;}</style></defs><g><polygon class="b" points="19.5 15 19.5 19.5 4.5 19.5 4.5 15 6 15 6 18 18 18 18 15 19.5 15"/><path class="c" d="M19.5,15v4.5H4.5v-4.5h1.5v3h12v-3h1.5m1.5-1.5h-4.5v3H7.5v-3H3v7.5H21v-7.5h0Z"/></g><g><polygon class="b" points="15 6 12 10.5 9 6 15 6"/><path class="c" d="M15,6l-3,4.5-3-4.5h6m2.803-1.5H6.197l1.555,2.332,3,4.5,1.248,1.872,1.248-1.872,3-4.5,1.555-2.332h0Z"/></g><rect class="d" y="0" width="24" height="24"/></svg>