<?xml version="1.0" encoding="UTF-8"?>
<svg id="export_file" xmlns="http://www.w3.org/2000/svg" viewBox="0 0 32 32">
  <defs>
    <style>
      .cls-1 {
        fill: #bdbdbd;
      }

      .cls-2 {
        fill: #3a3a3a;
      }

      .cls-3 {
        fill: none;
      }
    </style>
  </defs>
  <g>
    <polygon class="cls-1" points="28 24 28 28 4 28 4 24 8 24 8 24 24 24 24 24 28 24"/>
    <path class="cls-2" d="m28,24v4H4v-4h24m2-2H2v8h28v-8h0Z"/>
  </g>
  <g>
    <polygon class="cls-1" points="22 10 16 18 10 10 14 10 14 4 18 4 18 10 22 10"/>
    <path class="cls-2" d="m18,4v6h4l-6,8-6-8h4V4h4m2-2h-8v6h-6l2.4,3.2,6,8,1.6,2.133,1.6-2.133,6-8,2.4-3.2h-6V2h0Z"/>
  </g>
  <rect class="cls-3" y="0" width="32" height="32"/>
  <rect class="cls-3" y="0" width="32" height="32"/>
</svg>