<?xml version="1.0" encoding="UTF-8"?><svg id="a" xmlns="http://www.w3.org/2000/svg" viewBox="0 0 24 24"><defs><style>.d{fill:#bdbdbd;}.e{fill:#3a3a3a;}.f{fill:none;}</style></defs><g id="b"><rect class="f" y="0" width="24" height="24"/><g id="c"><g><polygon class="d" points="19.388 6.188 19.388 19.478 2.303 19.478 2.303 4.522 8.228 4.522 8.228 6.188 19.388 6.188"/><path class="e" d="M20.139,20.228H1.553V3.773h7.425v1.665h11.161v14.791Zm-17.086-1.5h15.586V6.938H7.478v-1.665H3.053v13.455Z"/></g><g><polygon class="d" points="4.809 9.901 2.655 19.478 19.542 19.478 21.697 8.701 15.772 8.701 15.496 9.901 4.809 9.901"/><path class="e" d="M20.158,20.228H1.717l2.492-11.077H14.899l.275-1.2h7.438l-2.455,12.277Zm-16.566-1.5h15.335l1.854-9.277h-4.412l-.275,1.2H5.41l-1.818,8.077Z"/></g></g></g></svg>