<?xml version="1.0" encoding="UTF-8"?>
<svg id="copy_file" xmlns="http://www.w3.org/2000/svg" viewBox="0 0 16 16">
  <defs>
    <style>
      .cls-1 {
        fill: #bdbdbd;
      }

      .cls-1, .cls-2, .cls-3 {
        stroke-width: 0px;
      }

      .cls-2 {
        fill: none;
      }

      .cls-3 {
        fill: #3a3a3a;
      }
    </style>
  </defs>
  <g>
    <path class="cls-1" d="M11.604,8.922c-.514,1.693-2.086,2.925-3.947,2.925-.843,0-1.623-.257-2.276-.692l1.427-.925-4.796-2.159v5.268s1.312-.851,1.312-.851c1.144,1.042,2.663,1.681,4.333,1.681,3.15,0,5.769-2.261,6.332-5.248h-2.385Z"/>
    <path class="cls-3" d="M2.011,8.072l4.796,2.159-1.427.925c.653.434,1.433.692,2.276.692,1.861,0,3.433-1.232,3.947-2.925h2.385c-.563,2.987-3.182,5.248-6.332,5.248-1.67,0-3.189-.638-4.333-1.681l-1.313.851v-5.268M13.989,8.922h.005M2.012,7.072c-.19,0-.379.054-.543.16-.285.184-.457.5-.457.84v5.268c0,.367.2.704.522.879.149.081.314.121.478.121.19,0,.379-.054.544-.161l.701-.455c1.273.937,2.809,1.445,4.401,1.445,3.551,0,6.609-2.514,7.3-5.988.022-.083.034-.17.034-.26,0-.552-.445-1-.998-1h-2.39c-.44,0-.829.288-.957.709-.403,1.325-1.604,2.216-2.99,2.216-.021,0-.041,0-.062,0,.151-.193.228-.439.209-.692-.028-.365-.253-.686-.587-.836l-4.796-2.159c-.131-.059-.271-.088-.41-.088h0Z"/>
  </g>
  <g>
    <path class="cls-1" d="M4.396,7.078c.514-1.693,2.086-2.925,3.947-2.925.843,0,1.623.257,2.276.692l-1.427.925,4.796,2.159V2.66s-1.312.851-1.312.851c-1.144-1.042-2.663-1.681-4.333-1.681-3.15,0-5.769,2.261-6.332,5.248h2.385Z"/>
    <path class="cls-3" d="M8.343,1.83c1.67,0,3.189.638,4.333,1.681l1.313-.851v5.268s-4.797-2.159-4.797-2.159l1.427-.925c-.653-.434-1.433-.692-2.276-.692-1.861,0-3.433,1.232-3.947,2.925h-2.385c.563-2.987,3.182-5.248,6.332-5.248M8.343.83C4.767.83,1.69,3.38,1.028,6.893c-.055.293.023.594.213.824.19.229.472.362.77.362h2.385c.44,0,.829-.288.957-.709.403-1.325,1.604-2.216,2.99-2.216.021,0,.041,0,.062,0-.151.193-.228.439-.209.692.028.365.253.686.587.836l4.796,2.159c.131.059.271.088.41.088.19,0,.379-.054.543-.16.285-.184.457-.5.457-.84V2.66c0-.367-.2-.704-.522-.879-.149-.081-.314-.121-.478-.121-.19,0-.379.054-.544.161l-.701.455c-1.273-.937-2.809-1.445-4.401-1.445h0Z"/>
  </g>
  <rect class="cls-2" width="16" height="16"/>
</svg>