<?xml version="1.0" encoding="UTF-8"?><svg id="a" xmlns="http://www.w3.org/2000/svg" viewBox="0 0 32 32"><defs><style>.c{fill:#bdbdbd;}.d{fill:#3a3a3a;}.e{fill:none;}</style></defs><g id="b"><rect class="e" width="32" height="32"/><g><polygon class="c" points="20 10 20 8 12 8 12 10 15 10 15 22 12 22 12 24 20 24 20 22 17 22 17 10 20 10"/><path class="d" d="M20,8v2h-3v12h3v2H12v-2h3V10h-3v-2h8m2-2H10v6h3v8h-3v6h12v-6h-3V12h3V6h0Z"/></g><g><path class="c" d="M4,4V28H28V4H4ZM26,26H6V6H26V26Z"/><path class="d" d="M28,4V28H4V4H28M6,26H26V6H6V26M30,2H2V30H30V2h0ZM8,8H24V24H8V8h0Z"/></g></g></svg>