<?xml version="1.0" encoding="UTF-8"?><svg id="a" xmlns="http://www.w3.org/2000/svg" viewBox="0 0 24 24"><defs><style>.c{fill:#bdbdbd;}.d{fill:#3a3a3a;}.e{fill:none;}</style></defs><g id="b"><g><g><rect class="c" x="4.5" y="7.5" width="15" height="1.5"/><path class="d" d="M19.5,7.5v1.5H4.5v-1.5h15m1.5-1.5H3v4.5H21V6h0Z"/></g><g><polygon class="c" points="12 3 15 6 9 6 12 3"/><path class="d" d="M12,3l3,3h-6l3-3m0-2.121l-1.061,1.061-3,3-2.561,2.561h13.243l-2.561-2.561-3-3-1.061-1.061h0Z"/></g></g><g><g><rect class="c" x="4.5" y="15" width="15" height="1.5" transform="translate(24 31.5) rotate(180)"/><path class="d" d="M19.5,15v1.5H4.5v-1.5h15m1.5-1.5H3v4.5H21v-4.5h0Z"/></g><g><polygon class="c" points="12 21 9 18 15 18 12 21"/><path class="d" d="M15,18l-3,3-3-3h6m3.621-1.5H5.378l2.561,2.561,3,3,1.061,1.061,1.061-1.061,3-3,2.561-2.561h0Z"/></g></g><rect class="e" width="24" height="24"/></g></svg>