<?xml version="1.0" encoding="UTF-8"?><svg id="a" xmlns="http://www.w3.org/2000/svg" viewBox="0 0 32 32"><defs><style>.b{fill:#bdbdbd;}.c{fill:#3a3a3a;}.d{fill:none;}</style></defs><rect class="d" width="32" height="32"/><rect class="b" x="6" y="6" width="20" height="20"/><g><polyline class="b" points="10 6 10 14 22 14 22 6"/><polygon class="c" points="22.75 14.75 9.25 14.75 9.25 6 10.75 6 10.75 13.25 21.25 13.25 21.25 6 22.75 6 22.75 14.75"/></g><path class="c" d="M25,6l1,1V25l-1,1H7l-1-1V7l1-1H25m.828-2H6.172l-.586,.586-1,1-.586,.586V25.828l.586,.586,1,1,.586,.586H25.828l.586-.586,1-1,.586-.586V6.172l-.586-.586-1-1-.586-.586h0Z"/><g><rect class="c" x="12" y="19" width="8" height="4"/><path class="c" d="M21,24H11v-6h10v6Zm-8-2h6v-2h-6v2Z"/></g><g><rect class="b" x="13" y="20" width="1" height="2"/><rect class="b" x="12.25" y="19.25" width="2.5" height="3.5"/></g></svg>