<?xml version="1.0" encoding="UTF-8"?>
<svg id="copy_file" xmlns="http://www.w3.org/2000/svg" viewBox="0 0 48 48">
  <defs>
    <style>
      .cls-1 {
        fill: #bdbdbd;
      }

      .cls-1, .cls-2 {
        stroke-width: 0px;
      }

      .cls-2 {
        fill: #3a3a3a;
      }
    </style>
  </defs>
  <g id="orig">
    <path class="cls-1" d="M44.906,22.171c-.069-.703-.684-1.181-1.39-1.163-2.03.052-3.972-1.117-4.796-3.106-.824-1.989-.276-4.19,1.196-5.588.519-.493.597-1.273.136-1.821-.774-.919-1.626-1.771-2.545-2.545-.548-.461-1.328-.384-1.821.136-1.399,1.472-3.599,2.02-5.588,1.196-1.989-.824-3.157-2.766-3.106-4.796.018-.706-.46-1.321-1.163-1.39-.602-.059-1.211-.094-1.829-.094s-1.227.035-1.829.094c-.703.069-1.181.684-1.163,1.39.052,2.03-1.117,3.972-3.106,4.796-1.989.824-4.189.276-5.588-1.196-.493-.519-1.273-.597-1.821-.136-.919.774-1.771,1.626-2.545,2.545-.461.548-.384,1.328.136,1.821,1.472,1.399,2.02,3.599,1.196,5.588-.824,1.989-2.766,3.157-4.796,3.106-.706-.018-1.321.46-1.39,1.162-.059.602-.094,1.211-.094,1.829s.035,1.227.094,1.829c.069.703.684,1.18,1.39,1.162,2.03-.052,3.972,1.117,4.796,3.106.824,1.989.276,4.19-1.196,5.588-.519.493-.597,1.273-.136,1.821.774.919,1.626,1.771,2.545,2.545.548.461,1.328.384,1.821-.136,1.399-1.472,3.599-2.02,5.588-1.196,1.989.824,3.157,2.766,3.106,4.796-.018.706.46,1.321,1.163,1.39.602.059,1.211.094,1.829.094s1.227-.035,1.829-.094c.703-.069,1.181-.684,1.163-1.39-.052-2.03,1.117-3.972,3.106-4.796,1.989-.824,4.19-.276,5.588,1.196.493.519,1.273.597,1.821.136.919-.774,1.771-1.625,2.545-2.545.461-.548.384-1.328-.136-1.821-1.473-1.399-2.02-3.599-1.196-5.588.824-1.989,2.766-3.157,4.796-3.106.706.018,1.321-.46,1.39-1.163.059-.602.094-1.211.094-1.829s-.035-1.227-.094-1.829ZM24,30.712c-3.707,0-6.712-3.005-6.712-6.712s3.005-6.712,6.712-6.712,6.712,3.005,6.712,6.712-3.005,6.712-6.712,6.712Z"/>
    <path class="cls-2" d="M24,3c.618,0,1.227.035,1.829.094.703.069,1.181.684,1.163,1.39-.052,2.03,1.117,3.972,3.106,4.796.63.261,1.281.384,1.921.384,1.381,0,2.711-.574,3.667-1.58.273-.288.635-.44.996-.44.291,0,.581.099.825.304.919.774,1.771,1.625,2.545,2.545.461.548.384,1.328-.136,1.821-1.472,1.399-2.02,3.599-1.196,5.588.806,1.947,2.684,3.107,4.667,3.107.043,0,.086,0,.129-.002.013,0,.026,0,.039,0,.69,0,1.284.473,1.352,1.163.059.602.094,1.211.094,1.829s-.035,1.227-.094,1.829c-.068.69-.662,1.163-1.352,1.163-.013,0-.026,0-.039,0-.043-.001-.086-.002-.129-.002-1.982,0-3.86,1.161-4.667,3.107-.824,1.989-.276,4.19,1.196,5.588.519.493.597,1.273.136,1.821-.774.919-1.625,1.771-2.545,2.545-.244.206-.535.304-.825.304-.361,0-.722-.152-.996-.44-.956-1.006-2.285-1.58-3.667-1.58-.64,0-1.291.123-1.922.384-1.989.824-3.157,2.766-3.106,4.796.018.706-.46,1.321-1.163,1.39-.602.059-1.211.094-1.829.094s-1.227-.035-1.829-.094c-.703-.069-1.18-.684-1.162-1.39.052-2.03-1.117-3.972-3.106-4.796-.63-.261-1.281-.384-1.921-.384-1.381,0-2.711.574-3.667,1.58-.273.288-.635.44-.996.44-.291,0-.581-.099-.825-.304-.919-.774-1.771-1.626-2.545-2.545-.461-.548-.384-1.328.136-1.821,1.472-1.399,2.02-3.599,1.196-5.588-.806-1.947-2.684-3.107-4.667-3.107-.043,0-.086,0-.129.002-.013,0-.026,0-.039,0-.69,0-1.284-.473-1.352-1.163-.059-.602-.094-1.211-.094-1.829s.035-1.227.094-1.829c.068-.69.662-1.163,1.352-1.163.013,0,.026,0,.039,0,.043.001.086.002.129.002,1.982,0,3.86-1.161,4.667-3.107.824-1.989.276-4.19-1.196-5.588-.519-.493-.597-1.273-.136-1.821.774-.919,1.626-1.771,2.545-2.545.244-.206.535-.304.825-.304.361,0,.722.152.996.44.956,1.006,2.286,1.58,3.667,1.58.64,0,1.291-.123,1.921-.384,1.989-.824,3.157-2.766,3.106-4.796-.018-.706.46-1.321,1.162-1.39.602-.059,1.211-.094,1.829-.094M24,30.712c3.707,0,6.712-3.005,6.712-6.712s-3.005-6.712-6.712-6.712-6.712,3.005-6.712,6.712,3.005,6.712,6.712,6.712M24,0c-.686,0-1.381.036-2.123.109-2.264.223-3.926,2.138-3.867,4.452.022.859-.471,1.623-1.255,1.948-.25.103-.51.156-.773.156-.558,0-1.101-.236-1.492-.647-.829-.873-1.985-1.374-3.171-1.374-1.006,0-1.985.359-2.758,1.01-1.047.882-2.025,1.86-2.907,2.907-1.465,1.739-1.305,4.343.364,5.928.623.592.815,1.481.49,2.265-.316.763-1.06,1.255-1.895,1.255l-.168-.002c-2.255,0-4.12,1.663-4.337,3.868-.073.743-.109,1.437-.109,2.123s.036,1.381.109,2.123c.218,2.205,2.082,3.868,4.337,3.868l.168-.002c.835,0,1.579.493,1.895,1.255.325.784.132,1.673-.49,2.265-1.669,1.585-1.829,4.189-.364,5.928.882,1.047,1.86,2.025,2.907,2.907.773.651,1.752,1.01,2.758,1.01,1.186,0,2.341-.501,3.171-1.374.39-.411.934-.647,1.492-.647.263,0,.523.052.773.156.784.325,1.277,1.089,1.255,1.948-.059,2.315,1.603,4.229,3.867,4.452.743.073,1.437.109,2.123.109s1.381-.036,2.123-.109c2.264-.223,3.926-2.138,3.867-4.452-.022-.859.471-1.623,1.255-1.948.25-.104.51-.156.774-.156.558,0,1.101.236,1.492.646.829.873,1.985,1.374,3.171,1.374,1.005,0,1.985-.359,2.758-1.01,1.047-.882,2.025-1.86,2.907-2.907,1.465-1.739,1.305-4.343-.364-5.929-.623-.592-.815-1.481-.49-2.265.316-.763,1.06-1.255,1.895-1.255l.168.002c2.255,0,4.12-1.663,4.337-3.868.073-.743.109-1.437.109-2.123s-.036-1.381-.109-2.123c-.218-2.205-2.082-3.868-4.337-3.868l-.168.002c-.835,0-1.579-.493-1.895-1.255-.325-.784-.132-1.673.49-2.265,1.669-1.585,1.829-4.189.364-5.928-.882-1.047-1.86-2.025-2.907-2.907-.773-.651-1.752-1.009-2.757-1.009-1.186,0-2.342.501-3.171,1.374-.39.411-.934.647-1.492.647-.263,0-.524-.052-.773-.156-.784-.325-1.277-1.089-1.255-1.948.059-2.315-1.603-4.229-3.867-4.452-.743-.073-1.437-.109-2.123-.109h0ZM24,27.712c-2.047,0-3.712-1.665-3.712-3.712s1.665-3.712,3.712-3.712,3.712,1.665,3.712,3.712-1.665,3.712-3.712,3.712h0Z"/>
  </g>
</svg>